<svg width="155" height="152" viewBox="0 0 155 152" fill="none" xmlns="http://www.w3.org/2000/svg">
<rect x="71.8424" y="11.9077" width="21" height="17" rx="2" transform="rotate(134.463 71.8424 11.9077)" fill="currentColor"/>
<rect x="109.759" y="136.495" width="21" height="17" rx="2" transform="rotate(132.616 109.759 136.495)" fill="currentColor"/>
<rect x="136.094" y="71.0486" width="25" height="21" rx="2" transform="rotate(42.1539 136.094 71.0486)" fill="currentColor"/>
<rect x="98.5378" y="64.4349" width="29" height="21" rx="2" transform="rotate(-137.18 98.5378 64.4349)" fill="currentColor"/>
<rect x="63.153" y="124.087" width="29" height="20.9054" rx="2" transform="rotate(-136.837 63.153 124.087)" fill="currentColor"/>
<rect x="14.5143" y="50" width="25" height="21" rx="2" transform="rotate(43.7217 14.5143 50)" fill="currentColor"/>
<rect x="5" y="94.3974" width="128" height="21" rx="2" transform="rotate(-46.8585 5 94.3974)" fill="currentColor"/>
<rect x="49.12" y="136.88" width="128" height="21" rx="2" transform="rotate(-47.1751 49.12 136.88)" fill="currentColor"/>
</svg>
